{
  "accessors": [
    {
      "bufferView": 2,
      "componentType": 5126,
      "count": 10873,
      "max": [
        5.0221796035766602,
        3.2999999523162842,
        11.452287673950195
      ],
      "min": [
        -5.0221796035766602,
        -1.2999999523162842,
        -11.452285766601562
      ],
      "type": "VEC3"
    },
    {
      "bufferView": 2,
      "byteOffset": 130476,
      "componentType": 5126,
      "count": 10873,
      "max": [
        1,
        1,
        1
      ],
      "min": [
        -1,
        -1,
        -1
      ],
      "type": "VEC3"
    },
    {
      "bufferView": 3,
      "componentType": 5126,
      "count": 10873,
      "max": [
        0.97622793912887573,
        0.71615296602249146,
        0.60056084394454956,
        1
      ],
      "min": [
        -1,
        -0.71320456266403198,
        -1,
        -1
      ],
      "type": "VEC4"
    },
    {
      "bufferView": 1,
      "componentType": 5126,
      "count": 10873,
      "max": [
        0.99974042177200317,
        0.99968850612640381
      ],
      "min": [
        0.00025953221484087408,
        0.00031143426895141602
      ],
      "type": "VEC2"
    },
    {
      "bufferView": 1,
      "byteOffset": 86984,
      "componentType": 5126,
      "count": 10873,
      "max": [
        0.99996048212051392,
        1
      ],
      "min": [
        0,
        0.042611598968505859
      ],
      "type": "VEC2"
    },
    {
      "bufferView": 0,
      "componentType": 5125,
      "count": 54360,
      "max": [
        10872
      ],
      "min": [
        0
      ],
      "type": "SCALAR"
    },
    {
      "bufferView": 2,
      "byteOffset": 260952,
      "componentType": 5126,
      "count": 36,
      "max": [
        5,
        -1,
        11
      ],
      "min": [
        -5,
        -1,
        -11
      ],
      "type": "VEC3"
    },
    {
      "bufferView": 2,
      "byteOffset": 261384,
      "componentType": 5126,
      "count": 36,
      "max": [
        0,
        1,
        -0
      ],
      "min": [
        0,
        1,
        -0
      ],
      "type": "VEC3"
    },
    {
      "bufferView": 3,
      "byteOffset": 173968,
      "componentType": 5126,
      "count": 36,
      "max": [
        0,
        0,
        0,
        1
      ],
      "min": [
        0,
        0,
        0,
        1
      ],
      "type": "VEC4"
    },
    {
      "bufferView": 1,
      "byteOffset": 173968,
      "componentType": 5126,
      "count": 36,
      "max": [
        0.25979137420654297,
        0.99968850612640381
      ],
      "min": [
        0.00025953221484087408,
        0.3144603967666626
      ],
      "type": "VEC2"
    },
    {
      "bufferView": 1,
      "byteOffset": 174256,
      "componentType": 5126,
      "count": 36,
      "max": [
        0,
        1
      ],
      "min": [
        0,
        1
      ],
      "type": "VEC2"
    },
    {
      "bufferView": 0,
      "byteOffset": 217440,
      "componentType": 5125,
      "count": 120,
      "max": [
        35
      ],
      "min": [
        0
      ],
      "type": "SCALAR"
    },
    {
      "bufferView": 2,
      "byteOffset": 261816,
      "componentType": 5126,
      "count": 9,
      "max": [
        -8.7306184768676758,
        3,
        11
      ],
      "min": [
        -8.7306184768676758,
        -0.95000016689300537,
        -11
      ],
      "type": "VEC3"
    },
    {
      "bufferView": 2,
      "byteOffset": 261924,
      "componentType": 5126,
      "count": 9,
      "max": [
        -1,
        0,
        -0
      ],
      "min": [
        -1,
        0,
        -0
      ],
      "type": "VEC3"
    },
    {
      "bufferView": 3,
      "byteOffset": 174544,
      "componentType": 5126,
      "count": 9,
      "max": [
        0,
        0,
        0,
        1
      ],
      "min": [
        0,
        0,
        0,
        1
      ],
      "type": "VEC4"
    },
    {
      "bufferView": 1,
      "byteOffset": 174544,
      "componentType": 5126,
      "count": 9,
      "max": [
        0.62287640571594238,
        0.99968850612640381
      ],
      "min": [
        0.52036100625991821,
        0.31446033716201782
      ],
      "type": "VEC2"
    },
    {
      "bufferView": 1,
      "byteOffset": 174616,
      "componentType": 5126,
      "count": 9,
      "max": [
        0,
        1
      ],
      "min": [
        0,
        1
      ],
      "type": "VEC2"
    },
    {
      "bufferView": 0,
      "byteOffset": 217920,
      "componentType": 5125,
      "count": 24,
      "max": [
        8
      ],
      "min": [
        0
      ],
      "type": "SCALAR"
    }
  ],
  "asset": {
    "extras": {
      "author": "Axon Park (https://sketchfab.com/axonpark)",
      "license": "CC-BY-4.0 (http://creativecommons.org/licenses/by/4.0/)",
      "source": "https://sketchfab.com/3d-models/axon-park-gallery-c68c485f49064b709dc162735705689a",
      "title": "Axon Park Gallery"
    },
    "generator": "Sketchfab-5.97.1",
    "version": "2.0"
  },
  "bufferViews": [
    {
      "buffer": 0,
      "byteLength": 218016,
      "byteOffset": 0,
      "name": "floatBufferViews",
      "target": 34963
    },
    {
      "buffer": 0,
      "byteLength": 174688,
      "byteOffset": 218016,
      "byteStride": 8,
      "name": "floatBufferViews",
      "target": 34962
    },
    {
      "buffer": 0,
      "byteLength": 262032,
      "byteOffset": 392704,
      "byteStride": 12,
      "name": "floatBufferViews",
      "target": 34962
    },
    {
      "buffer": 0,
      "byteLength": 174688,
      "byteOffset": 654736,
      "byteStride": 16,
      "name": "floatBufferViews",
      "target": 34962
    }
  ],
  "buffers": [
    {
      "byteLength": 829424,
      "uri": "scene.bin"
    }
  ],
  "extensionsUsed": [
    "KHR_materials_unlit"
  ],
  "images": [
    {
      "uri": "textures/GalleryMaster_baseColor.png"
    }
  ],
  "materials": [
    {
      "doubleSided": true,
      "emissiveFactor": [
        0,
        0,
        0
      ],
      "extensions": {
        "KHR_materials_unlit": {}
      },
      "name": "GalleryMaster",
      "pbrMetallicRoughness": {
        "baseColorFactor": [
          1,
          1,
          1,
          1
        ],
        "baseColorTexture": {
          "index": 0,
          "texCoord": 0
        },
        "metallicFactor": 0,
        "roughnessFactor": 1
      }
    }
  ],
  "meshes": [
    {
      "primitives": [
        {
          "attributes": {
            "NORMAL": 1,
            "POSITION": 0,
            "TANGENT": 2,
            "TEXCOORD_0": 3,
            "TEXCOORD_1": 4
          },
          "indices": 5,
          "material": 0,
          "mode": 4
        }
      ]
    },
    {
      "primitives": [
        {
          "attributes": {
            "NORMAL": 7,
            "POSITION": 6,
            "TANGENT": 8,
            "TEXCOORD_0": 9,
            "TEXCOORD_1": 10
          },
          "indices": 11,
          "material": 0,
          "mode": 4
        }
      ]
    },
    {
      "primitives": [
        {
          "attributes": {
            "NORMAL": 13,
            "POSITION": 12,
            "TANGENT": 14,
            "TEXCOORD_0": 15,
            "TEXCOORD_1": 16
          },
          "indices": 17,
          "material": 0,
          "mode": 4
        }
      ]
    }
  ],
  "nodes": [
    {
      "children": [
        1
      ],
      "name": "RootNode (gltf orientation matrix)",
      "rotation": [
        -0.70710678118654746,
        -0,
        -0,
        0.70710678118654757
      ]
    },
    {
      "children": [
        2
      ],
      "name": "RootNode (model correction matrix)"
    },
    {
      "children": [
        3
      ],
      "name": "root"
    },
    {
      "children": [
        4,
        6,
        8
      ],
      "matrix": [
        1,
        0,
        0,
        0,
        0,
        2.2204460492503131e-16,
        1,
        0,
        0,
        -1,
        2.2204460492503131e-16,
        0,
        0,
        0,
        0,
        1
      ],
      "name": "GLTF_SceneRootNode"
    },
    {
      "children": [
        5
      ],
      "matrix": [
        1,
        0,
        0,
        0,
        0,
        1,
        0,
        0,
        0,
        0,
        1,
        0,
        0,
        1,
        0,
        1
      ],
      "name": "Gallery.001_1"
    },
    {
      "mesh": 0,
      "name": ""
    },
    {
      "children": [
        7
      ],
      "matrix": [
        1,
        0,
        0,
        0,
        0,
        1,
        0,
        0,
        0,
        0,
        1,
        0,
        0,
        1.125,
        0,
        1
      ],
      "name": "Gallery.004_2"
    },
    {
      "mesh": 1,
      "name": ""
    },
    {
      "children": [
        9
      ],
      "matrix": [
        1,
        0,
        0,
        0,
        0,
        1,
        0,
        0,
        0,
        0,
        1,
        0,
        13.696703910827637,
        0.99093377590179443,
        0,
        1
      ],
      "name": "Gallery.005_3"
    },
    {
      "mesh": 2,
      "name": ""
    }
  ],
  "samplers": [
    {
      "magFilter": 9729,
      "minFilter": 9987,
      "wrapS": 10497,
      "wrapT": 10497
    }
  ],
  "scene": 0,
  "scenes": [
    {
      "name": "OSG_Scene",
      "nodes": [
        0
      ]
    }
  ],
  "textures": [
    {
      "sampler": 0,
      "source": 0
    }
  ]
}

